<svg xmlns="http://www.w3.org/2000/svg" width="566.3" height="297.274" viewBox="0 0 566.3 297.274">
  <g id="Group_7" data-name="Group 7" transform="translate(-72.809 -204.057)">
    <g id="Group_2" data-name="Group 2" transform="translate(72.809 204.209)">
      <path id="Path_2" data-name="Path 2" d="M-.024-35.791H415.461L350,261.331H260.008L207.921,140.675,156.036,261.331H66.048Z" transform="translate(150.839 35.791)" fill="#fff"/>
      <path id="Path_1" data-name="Path 1" d="M3.809-35.791h136.4q40.332,0,65.16,10.944A105.94,105.94,0,0,1,246.411,6.568,130.064,130.064,0,0,1,269.922,54.2a221,221,0,0,1,7.3,57.56q0,47.629-10.843,73.875t-30.1,43.981q-19.254,17.734-41.346,23.612-30.2,8.107-54.722,8.107H3.809Z" transform="translate(-3.809 35.791)" fill="#fff"/>
    </g>
    <g id="Group_1" data-name="Group 1" transform="translate(72.809 204.209)">
      <path id="Path_5" data-name="Path 5" d="M3.809-35.791h136.4q40.332,0,65.16,10.944A105.94,105.94,0,0,1,246.411,6.568,130.064,130.064,0,0,1,269.922,54.2a221,221,0,0,1,7.3,57.56q0,47.629-10.843,73.875t-30.1,43.981q-19.254,17.734-41.346,23.612-30.2,8.107-54.722,8.107H3.809Z" transform="translate(-3.809 35.791)" fill="#363636"/>
      <path id="Path_2-2" data-name="Path 2" d="M-.024-35.791H415.461L350,261.331H260.008L207.921,140.675,156.036,261.331H66.048Z" transform="translate(150.839 35.791)" fill="#00d1b2"/>
      <path id="Path_6" data-name="Path 6" d="M-.024-35.791H415.461L350,261.331H260.008L207.921,140.675,156.036,261.331H66.048Z" transform="translate(150.839 35.791)" fill="#00d1b2"/>
      <path id="Path_1-2" data-name="Path 1" d="M3.809-35.791h136.4q40.332,0,65.16,10.944A105.94,105.94,0,0,1,246.411,6.568,130.064,130.064,0,0,1,269.922,54.2a221,221,0,0,1,7.3,57.56q0,47.629-10.843,73.875t-30.1,43.981q-19.254,17.734-41.346,23.612-30.2,8.107-54.722,8.107H3.809Z" transform="translate(-3.809 35.791)" fill="#363636" opacity="0.499"/>
      <path id="Intersection_1" data-name="Intersection 1" d="M0,0Q30.464,1.659,50.661,10.558A105.935,105.935,0,0,1,91.7,41.975a130.088,130.088,0,0,1,23.513,47.63,220.99,220.99,0,0,1,7.3,57.56q0,47.63-10.849,73.878T81.571,265.02a110.69,110.69,0,0,1-19.417,14.454Z" transform="translate(150.897 0.383)" fill="#008675" stroke="rgba(0,0,0,0)" stroke-miterlimit="10" stroke-width="1"/>
    </g>
  </g>
</svg>
